<?xml version="1.0" encoding="UTF-8" standalone="no"?>
<!DOCTYPE svg PUBLIC "-//W3C//DTD SVG 1.1//EN" "http://www.w3.org/Graphics/SVG/1.1/DTD/svg11.dtd">
<svg width="100%" height="100%" viewBox="0 0 680 170" version="1.1" xmlns="http://www.w3.org/2000/svg" xmlns:xlink="http://www.w3.org/1999/xlink" xml:space="preserve" xmlns:serif="http://www.serif.com/" style="fill-rule:evenodd;clip-rule:evenodd;stroke-linejoin:round;stroke-miterlimit:2;">
    <g transform="matrix(1,0,0,1,-376.545,-336.905)">
        <g transform="matrix(1,0,0,1,-50.1287,-47.6934)">
            <path d="M860.5,480.2C860.5,466.8 851.2,458.6 834.4,458.6C827.5,458.4 820.6,459.8 814.3,462.5C811.8,466.6 810.2,471.1 809.4,475.8C816.2,472.9 823.6,471.4 831.1,471.4C838.5,471.4 844.4,474.6 844.4,483.2C844.4,491.8 838.6,499 807,517.6C807,521.2 807.3,524.8 808,528.4L860,528.4C861.5,524.3 862.4,520 862.9,515.6L818.6,515.6C840.7,508 860.5,500.1 860.5,480.2ZM993.2,480.2C993.2,466.8 983.9,458.6 967.2,458.6C960.3,458.4 953.3,459.8 947,462.5C944.5,466.6 942.9,471.1 942.1,475.8C948.9,472.9 956.3,471.4 963.8,471.4C971.2,471.4 977.1,474.6 977.1,483.2C977.1,491.8 971.3,499 939.7,517.6C939.7,521.2 940,524.8 940.6,528.4L992.8,528.4C994.3,524.3 995.2,520 995.7,515.6L951.4,515.6C973.4,508 993.2,500.1 993.2,480.2ZM903,485.4C899.6,487.8 896.6,490.7 894,493.9C896.6,497.2 899.6,500.1 903,502.5C906.4,500.1 909.4,497.2 912,493.9C909.4,490.7 906.3,487.8 903,485.4ZM903,458.6C883.3,458.6 868.6,470.4 868.6,489.5C867.9,494.4 868.3,499.5 869.7,504.2C871.1,509 873.5,513.4 876.8,517.2C880.1,521 884.1,524 888.6,526.1C893.1,528.2 898.1,529.2 903,529.2C908,529.2 912.9,528.1 917.4,526.1C921.9,524 926,521 929.3,517.2C932.6,513.5 935,509 936.4,504.2C937.8,499.4 938.2,494.4 937.5,489.5C937.3,470.2 922.5,458.6 902.8,458.6L903,458.6ZM903,523.4C898.6,523.4 884.8,514.4 884.8,490.5C884.6,488 885,485.5 885.8,483.2C886.6,480.8 888,478.7 889.7,476.9C891.4,475.1 893.5,473.6 895.7,472.6C898,471.6 900.5,471.1 903,471.1C905.5,471.1 908,471.6 910.3,472.6C912.6,473.6 914.7,475 916.4,476.9C918.1,478.7 919.4,480.9 920.3,483.2C921.1,485.6 921.5,488 921.3,490.5C920.7,514.4 907.2,523.4 902.8,523.4L903,523.4ZM534.7,529.3L508.8,515.5C523.5,510.2 534.3,499.7 534.3,484.8C534.3,464.8 519.3,454.6 499.8,454.6C495.3,454.3 490.7,455 486.5,456.6C482.2,458.2 478.3,460.6 475.1,463.8C471.8,466.9 469.2,470.7 467.5,474.9C465.8,479.1 464.9,483.6 465,488.1C465,506.7 479.2,517.7 494.6,525.9L544.6,552C544.4,540.5 542.9,533.9 534.5,529.3L534.7,529.3ZM504.5,513.5L503.7,513C494.3,508 481.6,500.4 481.6,486.4C481.4,483.9 481.7,481.4 482.5,479.1C483.3,476.7 484.6,474.6 486.4,472.8C488.1,471 490.2,469.6 492.5,468.7C494.8,467.8 497.3,467.4 499.8,467.6C510.9,467.6 517.5,475.5 517.5,488.9C517.2,493.7 515.8,498.3 513.5,502.5C511.2,506.7 508.1,510.3 504.3,513.2L504.5,513.5ZM1054.4,480.4C1054.4,467 1045.1,458.8 1028.3,458.8C1021.4,458.6 1014.5,460 1008.1,462.7C1005.6,466.8 1004,471.3 1003.2,476C1010,473 1017.4,471.5 1024.9,471.6C1032.2,471.6 1038.2,474.8 1038.2,483.4C1038.2,492 1032.3,499.2 1000.8,517.8C1000.8,521.4 1001.1,525 1001.8,528.6L1053.9,528.6C1055.3,524.5 1056.3,520.2 1056.8,515.8L1012.2,515.8C1034.3,508 1054.1,500.1 1054.1,480.2L1054.4,480.4ZM541.3,505.2C541.3,521.5 547.2,529.3 555.1,529.3C564.7,529.3 572.4,520.8 579.7,502.6L579.7,528.3L595.5,528.3L595.5,474.2C588.4,473.6 581.9,473.2 574.9,473.2C555.3,473.3 541.3,481.4 541.3,505.2ZM563.5,515.6C559.4,515.6 557.7,510.1 557.7,495C557.7,487.1 561.5,485.1 572.4,485.1L579.8,485.1C576.2,495.9 571.5,515.6 563.5,515.6ZM780.3,499.2L780.3,493.9C780.3,487.3 779.8,480.8 778.8,474.3L763.5,474.3C764,481.2 764.5,487.1 764.5,493.9L764.5,528.3L780.3,528.3C780.3,509 786.5,487.1 802.9,489.5C802.8,484.1 802.3,478.6 801.4,473.3C789.4,474.3 783.6,484.9 780.3,499.2ZM697.6,505.2C697.5,508.7 697.9,512.1 698.7,515.5L641,515.5C633.1,515.5 628.4,513.8 628.4,506.7L628.4,487L646.6,487C648,482.9 649,478.6 649.6,474.2L628.3,474.2C628.3,468.2 628.9,462.7 629.3,456.5C623,458.4 617.2,462 612.6,466.8L612.6,474.2L603.3,474.2C602.5,479.6 602.5,483.6 602.3,487L612.6,487L612.6,507.6C612.3,510.4 612.6,513.2 613.6,515.9C614.6,518.5 616.1,520.9 618,522.9C620,524.9 622.4,526.4 625,527.3C627.6,528.2 630.5,528.6 633.3,528.3L711.9,528.3C721.5,528.3 728.9,520.4 736,502.6L736,528.3L751.8,528.3L751.8,474.2C744.7,473.6 738.2,473.2 731.1,473.2C711.6,473.3 697.6,481.4 697.6,505.2ZM719.8,515.6C715.7,515.6 714,510.1 714,495C714,487.1 717.8,485.1 728.7,485.1L736.1,485.1C732.5,495.9 727.8,515.6 719.8,515.6Z" style="fill:rgb(138,21,56);fill-rule:nonzero;"/>
        </g>
        <g transform="matrix(1,0,0,1,-50.1287,-47.6934)">
            <path d="M993,439.7L986.3,441.1C983.4,441.6 980.4,441.8 977.4,441.7C973.8,441.7 970.3,441.2 966.8,440.3C963.3,439.4 960.1,437.9 957.2,435.8C954.2,433.6 951.8,430.8 950.1,427.5C948.2,423.6 947.3,419.3 947.4,415C947.3,410.9 948.1,406.8 949.6,403C951,399.7 953.2,396.8 955.9,394.5C958.7,392.2 961.9,390.4 965.4,389.5C969.3,388.3 973.3,387.8 977.3,387.8C980,387.8 982.6,388.1 985.2,388.6C987.7,389.2 990.3,389.8 993.1,390.6L992,401.9C989.9,400.7 987.6,399.8 985.3,399.1C983.1,398.5 980.7,398.2 978.4,398.2C976.1,398.2 973.8,398.6 971.6,399.5C969.7,400.3 967.9,401.5 966.5,403C965.1,404.6 964,406.4 963.2,408.4C962.4,410.6 962,412.9 962,415.2C962,417.6 962.4,419.9 963.3,422.1C964.1,424.1 965.3,425.9 966.9,427.3C968.5,428.8 970.4,429.9 972.4,430.5C974.7,431.3 977.1,431.7 979.5,431.6C981.8,431.6 984.1,431.4 986.3,430.9C988.4,430.4 990.5,429.7 992.6,428.9L993,439.7Z" style="fill:rgb(138,21,56);fill-rule:nonzero;"/>
        </g>
        <g transform="matrix(1,0,0,1,-50.1287,-47.6934)">
            <path d="M1049.5,421C1049.5,424.2 1049,427.3 1047.8,430.2C1046.8,432.7 1045.2,434.9 1043.1,436.7C1040.9,438.4 1038.5,439.7 1035.8,440.5C1032.8,441.3 1029.6,441.7 1026.5,441.7C1023.3,441.7 1020.2,441.3 1017.1,440.5C1014.5,439.7 1012,438.4 1009.8,436.7C1007.8,434.9 1006.2,432.7 1005.2,430.2C1004,427.3 1003.5,424.1 1003.5,421L1003.5,388.5L1017.5,388.5L1017.5,418.6C1017.5,420.2 1017.6,421.9 1017.9,423.5C1018.1,425 1018.6,426.4 1019.3,427.6C1020,428.7 1020.9,429.7 1022.1,430.4C1023.5,431.1 1025,431.4 1026.5,431.4C1028.1,431.6 1029.8,431.4 1031.2,430.8C1032.3,430.1 1033.2,429.2 1033.9,428C1034.6,426.8 1035.1,425.4 1035.3,423.9C1035.5,422.3 1035.5,420.6 1035.3,419L1035.3,388.9L1049.3,388.9L1049.5,421Z" style="fill:rgb(138,21,56);fill-rule:nonzero;"/>
        </g>
        <g transform="matrix(1,0,0,1,-50.1287,-47.6934)">
            <path d="M1062.9,388.6L1079.5,388.6C1085.7,388.1 1091.9,389.6 1097.3,392.7C1099.1,394.3 1100.5,396.3 1101.4,398.5C1102.4,400.7 1102.9,403.1 1102.9,405.4C1102.9,407.8 1102.4,410.2 1101.4,412.3C1100.4,414.5 1099,416.4 1097.3,418.1C1092.9,421.3 1087.5,422.9 1082.1,422.6L1076.6,422.6L1076.6,440.8L1063,440.8L1063,388.6L1062.9,388.6ZM1076.8,412.3L1080.4,412.3C1081.5,412.4 1082.6,412.4 1083.7,412.3C1084.7,412.1 1085.6,411.7 1086.4,411.1C1087.2,410.5 1087.9,409.7 1088.2,408.8C1088.7,407.7 1089,406.6 1088.9,405.4C1089,404.3 1088.7,403.1 1088.2,402.1C1087.8,401.2 1087.2,400.4 1086.4,399.9C1085.6,399.3 1084.6,398.9 1083.7,398.7C1082.6,398.6 1081.5,398.6 1080.4,398.7L1076.8,398.7L1076.8,412.3Z" style="fill:rgb(138,21,56);fill-rule:nonzero;"/>
        </g>
        <g transform="matrix(1,0,0,1,-50.1287,-47.6934)">
            <path d="M625.1,388.6L639.3,388.6L646,428.7L653.1,388.6L670.7,388.6L678.1,428.7L685,388.6L698.5,388.6L686.8,440.9L669,440.9L661.6,400.7L654.7,440.9L636.7,440.9L625.1,388.6Z" style="fill:rgb(138,21,56);fill-rule:nonzero;"/>
        </g>
        <g transform="matrix(1,0,0,1,-50.1287,-47.6934)">
            <path d="M705.7,415C705.6,411.2 706.2,407.3 707.4,403.7C708.4,400.5 710.1,397.6 712.4,395.2C714.6,392.8 717.3,391 720.3,389.8C727.6,387.3 735.6,387.3 743,389.8C746,391 748.7,392.8 750.9,395.2C753.2,397.6 754.9,400.5 755.9,403.7C758.2,411 758.2,418.9 755.9,426.2C754.9,429.4 753.2,432.3 750.9,434.8C748.6,437.2 745.7,439.1 742.6,440.2C735.3,442.6 727.3,442.6 720,440.2C717,439 714.3,437.1 712.1,434.7C709.7,432.3 708,429.4 707,426.2C706,422.5 705.5,418.7 705.7,415ZM720.1,415C720.1,417.1 720.3,419.2 720.7,421.2C721.1,423.1 721.8,424.9 722.8,426.6C723.7,428.1 724.9,429.4 726.4,430.3C728.1,431.2 729.9,431.6 731.8,431.6C733.7,431.6 735.5,431.1 737.2,430.3C738.7,429.4 739.9,428.1 740.8,426.6C741.8,424.9 742.5,423.1 742.9,421.2C743.4,419.2 743.6,417.1 743.6,415C743.6,412.8 743.4,410.7 742.9,408.6C742.5,406.7 741.8,404.9 740.8,403.2C739.9,401.7 738.6,400.5 737.2,399.6C735.5,398.7 733.7,398.3 731.8,398.3C729.9,398.3 728,398.7 726.4,399.6C724.9,400.5 723.7,401.8 722.8,403.2C721.8,404.9 721.1,406.7 720.7,408.6C720.3,410.7 720.1,412.8 720.1,415Z" style="fill:rgb(138,21,56);fill-rule:nonzero;"/>
        </g>
        <g transform="matrix(1,0,0,1,-50.1287,-47.6934)">
            <path d="M769.7,388.6L794.6,388.6C796.8,388.6 799,388.8 801.1,389.4C803.1,389.9 804.9,390.7 806.5,391.9C808,393 809.3,394.4 810.1,396C811,397.8 811.5,399.8 811.4,401.8C811.5,404.9 810.7,407.9 808.9,410.4C806.9,412.9 804.1,414.5 801,415C802,415.2 803,415.7 803.7,416.4C804.4,417.1 805,417.9 805.4,418.8C805.9,419.9 806.4,421 806.8,422.1C807.2,423.4 807.7,424.9 808.4,426.4L813.6,440.6L799,440.6L796,431.1C795.5,429.2 794.8,427.4 794,425.6C793.5,424.4 792.8,423.2 792,422.2C791.3,421.4 790.5,420.7 789.5,420.4C788.4,420.1 787.3,419.9 786.2,419.9L783.3,419.9L783.3,440.6L769.7,440.6L769.7,388.6ZM783.6,410.3L790.8,410.3C791.9,410.2 793.1,410 794.1,409.5C795,409.2 795.8,408.5 796.5,407.8C797.3,406.8 797.6,405.6 797.5,404.3C797.6,403.3 797.2,402.2 796.6,401.4C796,400.4 795.2,399.7 794.2,399.2C793.2,398.8 792.1,398.5 791,398.4C789.7,398.3 788.4,398.3 787.1,398.4L783.4,398.4L783.6,410.3Z" style="fill:rgb(138,21,56);fill-rule:nonzero;"/>
        </g>
        <g transform="matrix(1,0,0,1,-50.1287,-47.6934)">
            <path d="M826.2,388.6L840.1,388.6L840.1,430.8L861.8,430.8L861.8,441.2L826.2,441.2L826.2,388.6Z" style="fill:rgb(138,21,56);fill-rule:nonzero;"/>
        </g>
        <g transform="matrix(1,0,0,1,-50.1287,-47.6934)">
            <path d="M873.2,388.6L892.3,388.6C896.5,388.6 900.7,389 904.8,389.8C908.3,390.5 911.7,391.9 914.6,394C917.4,396 919.6,398.7 921,401.9C922.6,405.9 923.4,410.2 923.3,414.5C923.4,418.8 922.6,423 920.9,426.9C919.4,430 917.3,432.7 914.5,434.8C911.5,436.9 908.2,438.4 904.6,439.2C900.6,440.2 896.4,440.6 892.3,440.6L873.2,440.6L873.2,388.6ZM887.1,430.5L892.6,430.5C897,430.8 901.3,429.4 904.6,426.5C907.3,423.2 908.9,419 908.9,414.7C908.9,410.4 907.4,406.2 904.6,402.8C901.2,400 896.9,398.6 892.6,398.9L887.1,398.9L887.1,430.5Z" style="fill:rgb(138,21,56);fill-rule:nonzero;"/>
        </g>
        <g transform="matrix(1,0,0,1,-50.1287,-47.6934)">
            <path d="M431.2,388.5L431.2,440.9L447.5,440.9L447.5,421.9L459.2,421.9L463.4,410.5L447.5,410.5L447.5,400L467.3,400L471.4,388.5L431.2,388.5Z" style="fill:rgb(138,21,56);"/>
        </g>
        <g transform="matrix(1,0,0,1,-50.1287,-47.6934)">
            <rect x="482.6" y="388.5" width="16.3" height="52.3" style="fill:rgb(138,21,56);"/>
        </g>
        <g transform="matrix(1,0,0,1,-50.1287,-47.6934)">
            <path d="M516.4,388.5L516.4,440.9L532.7,440.9L532.7,421.9L544.4,421.9L548.6,410.5L532.7,410.5L532.7,400L552.4,400L556.6,388.5L516.4,388.5Z" style="fill:rgb(138,21,56);"/>
        </g>
        <g transform="matrix(1,0,0,1,-50.1287,-47.6934)">
            <path d="M609.5,440.9L593,440.9L590.9,433.9L572.5,433.9L570.5,440.9L554.7,440.9L573.7,388.6L590.6,388.6L609.5,440.9ZM588.2,423.8L581.7,402L575.4,423.8L588.2,423.8Z" style="fill:rgb(138,21,56);"/>
        </g>
    </g>
</svg>
